Life.As.We.Know.It.2010.PPVRip XviD Feel-Free

Genre:Comedy | Drama
Language:English
IMDb:http://www.imdb.com/title/tt1055292/
Source:IFLIX Thx.
Subtitles:Romana

Format : AVI
Format/Info : Audio Video Interleave
File size : 802 MiB
Duration : 1h 54mn
Overall bit rate : 978 Kbps


Video
Codec ID/Hint : XviD
Duration : 1h 54mn
Bit rate : 836 Kbps
Width : 576 pixels
Height : 416 pixels
Display aspect ratio : 1.385
Frame rate : 29.970 fps
Color space : YUV
Chroma subsampling : 4:2:0
Bit depth : 8 bits
Scan type : Progressive
Bits/(Pixel*Frame) : 0.116
Stream size : 686 MiB (86%)
Writing library : XviD 1.2.1 (UTC 2008-12-04)

Audio
ID : 1
Format : MPEG Audio
Format version : Version 1
Format profile : Layer 3
Mode : Joint stereo
Mode extension : MS Stereo
Codec ID : 55
Codec ID/Hint : MP3
Duration : 1h 54mn
Bit rate mode : Constant
Bit rate : 128 Kbps
Channel(s) : 2 channels
Sampling rate : 44.1 KHz
Stream size : 105 MiB (13%)
Alignment : Aligned on interleaves
Interleave, duration : 26 ms (0.78 video frame)
Interleave, preload duration : 522 ms
Writing library : LAME3.98.2



Plot:
Two single adults become caregivers to an orphaned girl when their mutual best friends die in an accident.
